<svg xmlns="http://www.w3.org/2000/svg" xmlns:xlink="http://www.w3.org/1999/xlink" width="500" zoomAndPan="magnify" viewBox="0 0 375 374.999991" height="500" preserveAspectRatio="xMidYMid meet" version="1.0"><defs><clipPath id="ecf09a6e67"><path d="M 233 102 L 296.808594 102 L 296.808594 147 L 233 147 Z M 233 102 " clip-rule="nonzero"/></clipPath><clipPath id="2749db2111"><path d="M 78.558594 143 L 150 143 L 150 275.125 L 78.558594 275.125 Z M 78.558594 143 " clip-rule="nonzero"/></clipPath><clipPath id="bd909d1c3b"><path d="M 205 74.875 L 251 74.875 L 251 99 L 205 99 Z M 205 74.875 " clip-rule="nonzero"/></clipPath></defs><path fill="#63cbf7" d="M 165.636719 111.101562 C 165.914062 111.078125 166.191406 111.0625 166.472656 111.054688 C 167.390625 111.039062 167.839844 110.394531 168.386719 109.890625 C 168.574219 109.714844 167.339844 110.289062 165.636719 111.101562 Z M 159.289062 114.136719 C 159.710938 114.054688 160.140625 113.992188 160.570312 113.9375 C 161.386719 113.835938 161.816406 113.34375 162.171875 112.769531 C 161.121094 113.269531 160.109375 113.757812 159.289062 114.136719 Z M 159.289062 114.136719 C 159.710938 114.054688 160.140625 113.992188 160.570312 113.9375 C 161.386719 113.835938 161.816406 113.34375 162.171875 112.769531 C 161.121094 113.269531 160.109375 113.757812 159.289062 114.136719 Z M 165.636719 111.101562 C 165.914062 111.078125 166.191406 111.0625 166.472656 111.054688 C 167.390625 111.039062 167.839844 110.394531 168.386719 109.890625 C 168.574219 109.714844 167.339844 110.289062 165.636719 111.101562 Z M 165.636719 111.101562 C 165.914062 111.078125 166.191406 111.0625 166.472656 111.054688 C 167.390625 111.039062 167.839844 110.394531 168.386719 109.890625 C 168.574219 109.714844 167.339844 110.289062 165.636719 111.101562 Z M 159.289062 114.136719 C 159.710938 114.054688 160.140625 113.992188 160.570312 113.9375 C 161.386719 113.835938 161.816406 113.34375 162.171875 112.769531 C 161.121094 113.269531 160.109375 113.757812 159.289062 114.136719 Z M 159.289062 114.136719 C 159.710938 114.054688 160.140625 113.992188 160.570312 113.9375 C 161.386719 113.835938 161.816406 113.34375 162.171875 112.769531 C 161.121094 113.269531 160.109375 113.757812 159.289062 114.136719 Z M 165.636719 111.101562 C 165.914062 111.078125 166.191406 111.0625 166.472656 111.054688 C 167.390625 111.039062 167.839844 110.394531 168.386719 109.890625 C 168.574219 109.714844 167.339844 110.289062 165.636719 111.101562 Z M 204.726562 190.722656 C 204.492188 190.578125 204.253906 190.441406 204.007812 190.304688 C 203.117188 190.003906 202.277344 189.566406 201.507812 188.972656 C 201.464844 188.941406 201.417969 188.90625 201.375 188.871094 C 198.738281 186.730469 197.703125 183.664062 193.976562 183.152344 C 191.949219 182.875 189.859375 183.132812 187.855469 182.710938 C 187.5 182.640625 187.136719 182.535156 186.847656 182.320312 C 186.414062 182.003906 186.191406 181.496094 185.933594 181.027344 C 185.265625 179.84375 184.25 178.859375 183.046875 178.226562 C 182.90625 178.148438 182.757812 178.082031 182.605469 178.015625 C 182.109375 177.796875 181.550781 177.640625 181.046875 177.820312 C 180.550781 177.992188 180.222656 178.457031 179.816406 178.789062 C 178.277344 180.03125 175.847656 179.289062 174.152344 180.308594 C 173.824219 180.503906 173.519531 180.769531 173.226562 181.039062 C 172.59375 181.601562 171.988281 182.183594 171.171875 182.199219 C 170.742188 182.207031 170.335938 182.050781 169.9375 181.882812 C 169.859375 181.84375 169.777344 181.8125 169.699219 181.777344 C 168.148438 181.121094 166.476562 180.726562 164.792969 180.625 C 164.542969 180.609375 164.289062 180.601562 164.0625 180.695312 C 163.640625 180.867188 163.429688 181.324219 163.179688 181.703125 C 162.152344 183.242188 160.222656 183.695312 158.472656 184.425781 C 158.46875 184.425781 158.46875 184.429688 158.464844 184.429688 C 157.84375 184.6875 157.253906 184.980469 156.726562 185.371094 C 156.328125 185.667969 155.957031 186.03125 155.484375 186.195312 C 154.976562 186.375 154.421875 186.304688 153.890625 186.234375 L 150.578125 185.792969 L 150.574219 185.792969 L 147.386719 185.363281 C 147.773438 185.597656 148.160156 185.835938 148.539062 186.085938 C 151.679688 188.132812 154.511719 190.644531 156.917969 193.519531 C 157.445312 194.144531 157.960938 194.8125 158.199219 195.59375 C 158.382812 196.199219 158.386719 196.84375 158.457031 197.472656 C 158.730469 200.070312 160.042969 202.421875 161.34375 204.6875 C 161.78125 205.453125 162.273438 206.261719 163.070312 206.636719 C 163.292969 206.738281 163.53125 206.808594 163.757812 206.882812 C 163.988281 206.957031 164.21875 207.046875 164.410156 207.191406 C 164.9375 207.582031 165.105469 208.28125 165.242188 208.929688 C 165.292969 209.183594 165.351562 209.4375 165.402344 209.695312 C 165.644531 210.855469 165.878906 212.015625 166.125 213.175781 C 182.828125 206.359375 196.503906 199.175781 207.019531 192.898438 C 206.441406 191.984375 205.65625 191.296875 204.726562 190.722656 Z M 165.636719 111.101562 C 165.914062 111.078125 166.191406 111.0625 166.472656 111.054688 C 167.390625 111.039062 167.839844 110.394531 168.386719 109.890625 C 168.574219 109.714844 167.339844 110.289062 165.636719 111.101562 Z M 159.289062 114.136719 C 159.710938 114.054688 160.140625 113.992188 160.570312 113.9375 C 161.386719 113.835938 161.816406 113.34375 162.171875 112.769531 C 161.121094 113.269531 160.109375 113.757812 159.289062 114.136719 Z M 159.289062 114.136719 C 159.710938 114.054688 160.140625 113.992188 160.570312 113.9375 C 161.386719 113.835938 161.816406 113.34375 162.171875 112.769531 C 161.121094 113.269531 160.109375 113.757812 159.289062 114.136719 Z M 165.636719 111.101562 C 165.914062 111.078125 166.191406 111.0625 166.472656 111.054688 C 167.390625 111.039062 167.839844 110.394531 168.386719 109.890625 C 168.574219 109.714844 167.339844 110.289062 165.636719 111.101562 Z M 204.726562 190.722656 C 204.492188 190.578125 204.253906 190.441406 204.007812 190.304688 C 203.117188 190.003906 202.277344 189.566406 201.507812 188.972656 C 201.464844 188.941406 201.417969 188.90625 201.375 188.871094 C 198.738281 186.730469 197.703125 183.664062 193.976562 183.152344 C 191.949219 182.875 189.859375 183.132812 187.855469 182.710938 C 187.5 182.640625 187.136719 182.535156 186.847656 182.320312 C 186.414062 182.003906 186.191406 181.496094 185.933594 181.027344 C 185.265625 179.84375 184.25 178.859375 183.046875 178.226562 C 182.90625 178.148438 182.757812 178.082031 182.605469 178.015625 C 182.109375 177.796875 181.550781 177.640625 181.046875 177.820312 C 180.550781 177.992188 180.222656 178.457031 179.816406 178.789062 C 178.277344 180.03125 175.847656 179.289062 174.152344 180.308594 C 173.824219 180.503906 173.519531 180.769531 173.226562 181.039062 C 172.59375 181.601562 171.988281 182.183594 171.171875 182.199219 C 170.742188 182.207031 170.335938 182.050781 169.9375 181.882812 C 169.859375 181.84375 169.777344 181.8125 169.699219 181.777344 C 168.148438 181.121094 166.476562 180.726562 164.792969 180.625 C 164.542969 180.609375 164.289062 180.601562 164.0625 180.695312 C 163.640625 180.867188 163.429688 181.324219 163.179688 181.703125 C 162.152344 183.242188 160.222656 183.695312 158.472656 184.425781 C 158.46875 184.425781 158.46875 184.429688 158.464844 184.429688 C 157.84375 184.6875 157.253906 184.980469 156.726562 185.371094 C 156.328125 185.667969 155.957031 186.03125 155.484375 186.195312 C 154.976562 186.375 154.421875 186.304688 153.890625 186.234375 L 150.578125 185.792969 L 150.574219 185.792969 L 147.386719 185.363281 C 147.773438 185.597656 148.160156 185.835938 148.539062 186.085938 C 151.679688 188.132812 154.511719 190.644531 156.917969 193.519531 C 157.445312 194.144531 157.960938 194.8125 158.199219 195.59375 C 158.382812 196.199219 158.386719 196.84375 158.457031 197.472656 C 158.730469 200.070312 160.042969 202.421875 161.34375 204.6875 C 161.78125 205.453125 162.273438 206.261719 163.070312 206.636719 C 163.292969 206.738281 163.53125 206.808594 163.757812 206.882812 C 163.988281 206.957031 164.21875 207.046875 164.410156 207.191406 C 164.9375 207.582031 165.105469 208.28125 165.242188 208.929688 C 165.292969 209.183594 165.351562 209.4375 165.402344 209.695312 C 165.644531 210.855469 165.878906 212.015625 166.125 213.175781 C 182.828125 206.359375 196.503906 199.175781 207.019531 192.898438 C 206.441406 191.984375 205.65625 191.296875 204.726562 190.722656 Z M 204.726562 190.722656 C 204.492188 190.578125 204.253906 190.441406 204.007812 190.304688 C 203.117188 190.003906 202.277344 189.566406 201.507812 188.972656 C 201.464844 188.941406 201.417969 188.90625 201.375 188.871094 C 198.738281 186.730469 197.703125 183.664062 193.976562 183.152344 C 191.949219 182.875 189.859375 183.132812 187.855469 182.710938 C 187.5 182.640625 187.136719 182.535156 186.847656 182.320312 C 186.414062 182.003906 186.191406 181.496094 185.933594 181.027344 C 185.265625 179.84375 184.25 178.859375 183.046875 178.226562 C 182.90625 178.148438 182.757812 178.082031 182.605469 178.015625 C 182.109375 177.796875 181.550781 177.640625 181.046875 177.820312 C 180.550781 177.992188 180.222656 178.457031 179.816406 178.789062 C 178.277344 180.03125 175.847656 179.289062 174.152344 180.308594 C 173.824219 180.503906 173.519531 180.769531 173.226562 181.039062 C 172.59375 181.601562 171.988281 182.183594 171.171875 182.199219 C 170.742188 182.207031 170.335938 182.050781 169.9375 181.882812 C 169.859375 181.84375 169.777344 181.8125 169.699219 181.777344 C 168.148438 181.121094 166.476562 180.726562 164.792969 180.625 C 164.542969 180.609375 164.289062 180.601562 164.0625 180.695312 C 163.640625 180.867188 163.429688 181.324219 163.179688 181.703125 C 162.152344 183.242188 160.222656 183.695312 158.472656 184.425781 C 158.46875 184.425781 158.46875 184.429688 158.464844 184.429688 C 157.84375 184.6875 157.253906 184.980469 156.726562 185.371094 C 156.328125 185.667969 155.957031 186.03125 155.484375 186.195312 C 154.976562 186.375 154.421875 186.304688 153.890625 186.234375 L 150.578125 185.792969 L 150.574219 185.792969 L 147.386719 185.363281 C 147.773438 185.597656 148.160156 185.835938 148.539062 186.085938 C 151.679688 188.132812 154.511719 190.644531 156.917969 193.519531 C 157.445312 194.144531 157.960938 194.8125 158.199219 195.59375 C 158.382812 196.199219 158.386719 196.84375 158.457031 197.472656 C 158.730469 200.070312 160.042969 202.421875 161.34375 204.6875 C 161.78125 205.453125 162.273438 206.261719 163.070312 206.636719 C 163.292969 206.738281 163.53125 206.808594 163.757812 206.882812 C 163.988281 206.957031 164.21875 207.046875 164.410156 207.191406 C 164.9375 207.582031 165.105469 208.28125 165.242188 208.929688 C 165.292969 209.183594 165.351562 209.4375 165.402344 209.695312 C 165.644531 210.855469 165.878906 212.015625 166.125 213.175781 C 182.828125 206.359375 196.503906 199.175781 207.019531 192.898438 C 206.441406 191.984375 205.65625 191.296875 204.726562 190.722656 Z M 165.636719 111.101562 C 165.914062 111.078125 166.191406 111.0625 166.472656 111.054688 C 167.390625 111.039062 167.839844 110.394531 168.386719 109.890625 C 168.574219 109.714844 167.339844 110.289062 165.636719 111.101562 Z M 159.289062 114.136719 C 159.710938 114.054688 160.140625 113.992188 160.570312 113.9375 C 161.386719 113.835938 161.816406 113.34375 162.171875 112.769531 C 161.121094 113.269531 160.109375 113.757812 159.289062 114.136719 Z M 159.289062 114.136719 C 159.710938 114.054688 160.140625 113.992188 160.570312 113.9375 C 161.386719 113.835938 161.816406 113.34375 162.171875 112.769531 C 161.121094 113.269531 160.109375 113.757812 159.289062 114.136719 Z M 165.636719 111.101562 C 165.914062 111.078125 166.191406 111.0625 166.472656 111.054688 C 167.390625 111.039062 167.839844 110.394531 168.386719 109.890625 C 168.574219 109.714844 167.339844 110.289062 165.636719 111.101562 Z M 204.726562 190.722656 C 204.492188 190.578125 204.253906 190.441406 204.007812 190.304688 C 203.117188 190.003906 202.277344 189.566406 201.507812 188.972656 C 201.464844 188.941406 201.417969 188.90625 201.375 188.871094 C 198.738281 186.730469 197.703125 183.664062 193.976562 183.152344 C 191.949219 182.875 189.859375 183.132812 187.855469 182.710938 C 187.5 182.640625 187.136719 182.535156 186.847656 182.320312 C 186.414062 182.003906 186.191406 181.496094 185.933594 181.027344 C 185.265625 179.84375 184.25 178.859375 183.046875 178.226562 C 182.90625 178.148438 182.757812 178.082031 182.605469 178.015625 C 182.109375 177.796875 181.550781 177.640625 181.046875 177.820312 C 180.550781 177.992188 180.222656 178.457031 179.816406 178.789062 C 178.277344 180.03125 175.847656 179.289062 174.152344 180.308594 C 173.824219 180.503906 173.519531 180.769531 173.226562 181.039062 C 172.59375 181.601562 171.988281 182.183594 171.171875 182.199219 C 170.742188 182.207031 170.335938 182.050781 169.9375 181.882812 C 169.859375 181.84375 169.777344 181.8125 169.699219 181.777344 C 168.148438 181.121094 166.476562 180.726562 164.792969 180.625 C 164.542969 180.609375 164.289062 180.601562 164.0625 180.695312 C 163.640625 180.867188 163.429688 181.324219 163.179688 181.703125 C 162.152344 183.242188 160.222656 183.695312 158.472656 184.425781 C 158.46875 184.425781 158.46875 184.429688 158.464844 184.429688 C 157.84375 184.6875 157.253906 184.980469 156.726562 185.371094 C 156.328125 185.667969 155.957031 186.03125 155.484375 186.195312 C 154.976562 186.375 154.421875 186.304688 153.890625 186.234375 L 150.578125 185.792969 L 150.574219 185.792969 L 147.386719 185.363281 C 147.773438 185.597656 148.160156 185.835938 148.539062 186.085938 C 151.679688 188.132812 154.511719 190.644531 156.917969 193.519531 C 157.445312 194.144531 157.960938 194.8125 158.199219 195.59375 C 158.382812 196.199219 158.386719 196.84375 158.457031 197.472656 C 158.730469 200.070312 160.042969 202.421875 161.34375 204.6875 C 161.78125 205.453125 162.273438 206.261719 163.070312 206.636719 C 163.292969 206.738281 163.53125 206.808594 163.757812 206.882812 C 163.988281 206.957031 164.21875 207.046875 164.410156 207.191406 C 164.9375 207.582031 165.105469 208.28125 165.242188 208.929688 C 165.292969 209.183594 165.351562 209.4375 165.402344 209.695312 C 165.644531 210.855469 165.878906 212.015625 166.125 213.175781 C 182.828125 206.359375 196.503906 199.175781 207.019531 192.898438 C 206.441406 191.984375 205.65625 191.296875 204.726562 190.722656 Z M 204.726562 190.722656 C 204.492188 190.578125 204.253906 190.441406 204.007812 190.304688 C 203.117188 190.003906 202.277344 189.566406 201.507812 188.972656 C 201.464844 188.941406 201.417969 188.90625 201.375 188.871094 C 198.738281 186.730469 197.703125 183.664062 193.976562 183.152344 C 191.949219 182.875 189.859375 183.132812 187.855469 182.710938 C 187.5 182.640625 187.136719 182.535156 186.847656 182.320312 C 186.414062 182.003906 186.191406 181.496094 185.933594 181.027344 C 185.265625 179.84375 184.25 178.859375 183.046875 178.226562 C 182.90625 178.148438 182.757812 178.082031 182.605469 178.015625 C 182.109375 177.796875 181.550781 177.640625 181.046875 177.820312 C 180.550781 177.992188 180.222656 178.457031 179.816406 178.789062 C 178.277344 180.03125 175.847656 179.289062 174.152344 180.308594 C 173.824219 180.503906 173.519531 180.769531 173.226562 181.039062 C 172.59375 181.601562 171.988281 182.183594 171.171875 182.199219 C 170.742188 182.207031 170.335938 182.050781 169.9375 181.882812 C 169.859375 181.84375 169.777344 181.8125 169.699219 181.777344 C 168.148438 181.121094 166.476562 180.726562 164.792969 180.625 C 164.542969 180.609375 164.289062 180.601562 164.0625 180.695312 C 163.640625 180.867188 163.429688 181.324219 163.179688 181.703125 C 162.152344 183.242188 160.222656 183.695312 158.472656 184.425781 C 158.46875 184.425781 158.46875 184.429688 158.464844 184.429688 C 157.84375 184.6875 157.253906 184.980469 156.726562 185.371094 C 156.328125 185.667969 155.957031 186.03125 155.484375 186.195312 C 154.976562 186.375 154.421875 186.304688 153.890625 186.234375 L 150.578125 185.792969 L 150.574219 185.792969 L 147.386719 185.363281 C 147.773438 185.597656 148.160156 185.835938 148.539062 186.085938 C 151.679688 188.132812 154.511719 190.644531 156.917969 193.519531 C 157.445312 194.144531 157.960938 194.8125 158.199219 195.59375 C 158.382812 196.199219 158.386719 196.84375 158.457031 197.472656 C 158.730469 200.070312 160.042969 202.421875 161.34375 204.6875 C 161.78125 205.453125 162.273438 206.261719 163.070312 206.636719 C 163.292969 206.738281 163.53125 206.808594 163.757812 206.882812 C 163.988281 206.957031 164.21875 207.046875 164.410156 207.191406 C 164.9375 207.582031 165.105469 208.28125 165.242188 208.929688 C 165.292969 209.183594 165.351562 209.4375 165.402344 209.695312 C 165.644531 210.855469 165.878906 212.015625 166.125 213.175781 C 182.828125 206.359375 196.503906 199.175781 207.019531 192.898438 C 206.441406 191.984375 205.65625 191.296875 204.726562 190.722656 Z M 168.386719 109.890625 C 168.574219 109.714844 167.339844 110.289062 165.636719 111.101562 C 165.914062 111.078125 166.191406 111.0625 166.472656 111.054688 C 167.390625 111.039062 167.839844 110.394531 168.386719 109.890625 Z M 162.171875 112.769531 C 161.121094 113.269531 160.109375 113.757812 159.289062 114.136719 C 159.710938 114.054688 160.140625 113.992188 160.570312 113.9375 C 161.386719 113.835938 161.816406 113.34375 162.171875 112.769531 Z M 262.363281 148.867188 C 262.136719 148.21875 261.894531 147.566406 261.648438 146.941406 C 261.421875 146.355469 261.1875 145.773438 260.949219 145.195312 C 260.515625 144.132812 260.054688 143.082031 259.578125 142.039062 C 259.195312 141.199219 258.792969 140.371094 258.378906 139.542969 C 258.324219 139.429688 258.269531 139.316406 258.207031 139.207031 C 257.886719 138.5625 257.554688 137.929688 257.210938 137.304688 C 257.0625 137.015625 256.894531 136.707031 256.695312 136.347656 C 255.878906 134.867188 255.011719 133.417969 254.105469 131.992188 C 247.175781 121.089844 237.808594 111.839844 226.789062 105.191406 C 202.480469 90.109375 172.21875 88.917969 145.855469 102.003906 C 124.152344 112.777344 108.578125 131.609375 102.304688 153.960938 C 101.722656 156.039062 101.214844 158.144531 100.796875 160.28125 C 100.644531 161.035156 100.507812 161.789062 100.378906 162.550781 C 100.050781 164.527344 99.785156 166.523438 99.597656 168.53125 L 99.597656 168.578125 C 99.46875 170.300781 99.386719 172.027344 99.339844 173.714844 C 99.308594 174.949219 99.300781 176.171875 99.3125 177.386719 C 99.410156 187.148438 100.890625 196.410156 103.730469 204.976562 C 104.597656 207.601562 105.597656 210.167969 106.722656 212.664062 C 107.324219 213.996094 107.957031 215.304688 108.625 216.589844 C 108.882812 217.09375 109.148438 217.597656 109.421875 218.089844 C 109.964844 219.078125 110.523438 220.054688 111.105469 221.011719 C 111.121094 221.042969 111.140625 221.078125 111.160156 221.109375 C 111.554688 221.753906 111.960938 222.40625 112.378906 223.050781 C 115.511719 227.878906 119.152344 232.316406 123.25 236.308594 C 124.371094 237.414062 125.527344 238.476562 126.722656 239.507812 C 126.878906 239.644531 127.039062 239.78125 127.199219 239.914062 C 127.714844 240.355469 128.234375 240.789062 128.757812 241.214844 C 129.363281 241.707031 129.976562 242.1875 130.597656 242.65625 C 130.605469 242.664062 130.609375 242.671875 130.617188 242.671875 C 130.902344 242.894531 131.1875 243.109375 131.476562 243.320312 C 131.476562 243.320312 131.476562 243.320312 131.484375 243.328125 C 135.195312 246.078125 139.167969 248.53125 143.382812 250.664062 L 143.386719 250.664062 C 144.355469 251.152344 145.339844 251.632812 146.339844 252.085938 C 148.417969 253.042969 150.546875 253.925781 152.730469 254.726562 C 162.714844 258.402344 173.4375 260.261719 184.101562 260.261719 C 190.660156 260.261719 197.199219 259.558594 203.53125 258.136719 C 219.582031 254.53125 233.769531 246.535156 244.558594 235.015625 C 256.636719 222.121094 264.113281 205.476562 266.78125 185.539062 L 266.789062 185.484375 C 268.089844 173.238281 266.554688 160.570312 262.363281 148.867188 Z M 251.203125 215.898438 C 250.167969 218.28125 249.425781 220.792969 247.753906 222.867188 C 246.484375 224.4375 245.261719 226.046875 243.960938 227.597656 C 242.71875 229.089844 241.449219 230.566406 240.105469 231.960938 C 238.664062 233.464844 237.171875 234.925781 235.601562 236.296875 C 233.796875 237.882812 231.941406 239.402344 230.023438 240.84375 C 228.453125 242.023438 226.78125 243.066406 225.113281 244.121094 C 223.550781 245.105469 221.96875 246.070312 220.335938 246.9375 C 218.550781 247.878906 216.71875 248.738281 214.875 249.5625 C 213.058594 250.375 211.21875 251.136719 209.355469 251.839844 C 208.222656 252.265625 207.035156 252.546875 205.871094 252.878906 C 204.253906 253.335938 202.632812 253.796875 201.011719 254.234375 C 199.914062 254.527344 198.816406 254.847656 197.699219 255.03125 C 195.753906 255.355469 193.789062 255.636719 191.820312 255.839844 C 190.09375 256.011719 188.351562 256.058594 186.617188 256.1875 C 186.394531 256.203125 186.179688 256.246094 185.964844 256.296875 C 183.527344 256.347656 181.097656 256.296875 178.683594 256.144531 C 178.683594 256.03125 178.679688 255.957031 178.714844 255.917969 C 180.40625 253.96875 181.210938 251.488281 182.617188 249.382812 C 183.1875 248.527344 184.132812 247.808594 185.058594 247.308594 C 187.09375 246.210938 189.238281 245.300781 191.316406 244.289062 C 193.9375 243.011719 196.414062 241.589844 197.894531 238.882812 C 198.5 237.757812 198.636719 236.601562 198.613281 235.414062 C 198.59375 234.566406 198.71875 233.886719 199.460938 233.410156 C 199.511719 233.382812 199.558594 233.34375 199.59375 233.300781 C 200.511719 232.160156 201.5 231.703125 203.019531 232.378906 C 203.609375 232.640625 204.566406 232.214844 205.3125 231.976562 C 206.539062 231.574219 207.757812 231.121094 208.933594 230.585938 C 210.007812 230.085938 211.03125 229.472656 212.058594 228.871094 C 212.28125 228.738281 212.492188 228.460938 212.578125 228.207031 C 213.148438 226.425781 214.421875 225.285156 215.980469 224.398438 C 217.707031 223.410156 218.46875 221.816406 218.558594 219.929688 C 218.605469 218.832031 218.960938 218.199219 220.019531 217.828125 C 223.09375 216.742188 225.269531 214.566406 226.945312 211.847656 C 227.902344 210.289062 227.488281 207.71875 226.125 206.511719 C 225.496094 205.957031 224.90625 205.351562 224.230469 204.863281 C 223.96875 204.675781 223.523438 204.703125 223.164062 204.699219 C 221.207031 204.683594 219.246094 204.707031 217.289062 204.683594 C 216.542969 204.675781 216.171875 204.148438 216.019531 203.488281 C 215.910156 203.015625 213.136719 202.445312 212.960938 202.011719 C 205.859375 209.695312 191.398438 221.914062 174.554688 236.351562 C 174.355469 237.132812 173.421875 240.835938 173.226562 241.609375 C 172.40625 244.851562 171.226562 248.019531 171.171875 251.410156 C 171.152344 252.523438 171.535156 253.644531 171.734375 254.761719 C 171.773438 254.972656 171.820312 255.179688 171.882812 255.445312 C 165.199219 254.488281 158.675781 252.757812 152.492188 250.316406 C 151.539062 249.941406 150.585938 249.546875 149.648438 249.136719 C 146.171875 247.617188 142.8125 245.871094 139.601562 243.902344 C 138.710938 243.355469 137.828125 242.792969 136.960938 242.214844 C 135.425781 241.1875 133.925781 240.109375 132.46875 238.984375 C 131.300781 238.082031 130.15625 237.140625 129.039062 236.171875 C 125.675781 233.246094 122.570312 230.03125 119.792969 226.546875 C 118.722656 225.210938 117.699219 223.835938 116.730469 222.421875 C 116.382812 221.917969 116.042969 221.40625 115.707031 220.894531 C 115.3125 220.285156 114.925781 219.667969 114.554688 219.054688 C 114.277344 218.59375 114 218.128906 113.730469 217.660156 C 113.054688 216.492188 112.414062 215.304688 111.800781 214.089844 C 110.125 210.773438 108.679688 207.304688 107.492188 203.730469 C 105.214844 196.847656 103.851562 189.492188 103.429688 181.761719 C 103.34375 180.328125 103.296875 178.878906 103.28125 177.417969 C 103.265625 176.226562 103.273438 175.027344 103.304688 173.820312 C 103.347656 172.199219 103.433594 170.539062 103.546875 168.878906 C 105.070312 152.6875 111.511719 137.757812 121.75 125.703125 C 121.699219 125.9375 121.636719 126.171875 121.5625 126.402344 C 121.640625 126.296875 121.722656 126.1875 121.796875 126.082031 C 121.859375 125.988281 121.9375 125.902344 122.007812 125.8125 C 122.078125 125.851562 122.148438 125.894531 122.214844 125.933594 C 122.128906 126.257812 122.058594 126.585938 121.945312 126.902344 C 121.011719 129.542969 119.914062 132.136719 119.167969 134.828125 C 118.230469 138.207031 117.472656 141.648438 116.828125 145.101562 C 116.324219 147.839844 116.570312 150.636719 116.886719 153.390625 C 117.101562 155.265625 117.4375 157.121094 117.773438 158.976562 C 117.886719 159.632812 118.027344 160.34375 118.8125 160.632812 C 118.945312 160.683594 119.003906 160.898438 119.117188 161.023438 C 119.425781 161.363281 119.6875 161.851562 120.074219 162 C 121.324219 162.480469 121.910156 163.347656 121.953125 164.644531 C 121.996094 165.851562 122.449219 166.847656 123.433594 167.609375 C 123.871094 167.945312 124.179688 168.460938 124.597656 168.832031 C 125.269531 169.433594 125.910156 170.121094 126.6875 170.527344 C 128.3125 171.363281 129.570312 172.636719 130.917969 173.800781 C 131.582031 174.375 132.203125 175.007812 132.914062 175.515625 C 133.660156 176.039062 134.484375 176.445312 135.269531 176.90625 C 136.007812 177.335938 136.742188 177.769531 137.65625 178.304688 C 137.511719 178.304688 137.378906 178.300781 137.242188 178.300781 C 137.359375 178.375 137.476562 178.445312 137.585938 178.523438 C 139.078125 179.628906 140.015625 181.242188 140.921875 182.859375 C 141.878906 182.878906 142.847656 183.125 143.824219 183.464844 C 146.082031 184.242188 148.375 185.488281 150.582031 185.453125 C 149.945312 184.945312 149.363281 183.941406 148.894531 182.804688 C 148.226562 181.179688 147.792969 179.289062 147.796875 178.242188 C 147.300781 178.269531 146.796875 178.289062 146.292969 178.308594 C 145.417969 178.34375 144.808594 177.65625 145.148438 176.828125 C 145.890625 174.996094 146.460938 173.042969 148.304688 171.878906 C 149.171875 171.332031 149.164062 170.414062 148.425781 169.734375 C 148.199219 169.523438 148.007812 169.265625 147.835938 169.011719 C 147.3125 168.242188 146.847656 168.082031 146.078125 168.632812 C 145.511719 169.039062 145.101562 169.648438 144.566406 170.109375 C 144.25 170.382812 143.859375 170.601562 143.460938 170.746094 C 142 171.277344 140.488281 171.148438 138.976562 171.066406 C 137.730469 170.992188 136.789062 170.386719 136.160156 169.449219 C 135.628906 168.648438 135.324219 167.679688 135.027344 166.746094 C 134.734375 165.824219 134.566406 164.863281 134.363281 163.917969 C 134.007812 162.199219 134.777344 160.871094 135.917969 159.699219 C 136.425781 159.179688 136.933594 158.640625 137.53125 158.242188 C 137.878906 158.011719 138.398438 158.035156 138.832031 157.949219 C 139.53125 157.804688 140.300781 157.804688 140.917969 157.492188 C 142.570312 156.660156 144.277344 156.808594 146.027344 156.921875 C 146.835938 156.976562 147.730469 156.804688 148.480469 156.492188 C 149.449219 156.09375 150.316406 155.449219 151.265625 154.886719 C 151.492188 155.609375 151.792969 156.363281 151.976562 157.15625 C 152.300781 158.546875 152.878906 159.835938 154.066406 160.613281 C 155.328125 161.429688 155.609375 162.675781 155.976562 163.917969 C 156.359375 165.195312 157.085938 166.207031 158.203125 166.914062 C 158.632812 167.1875 159.957031 166.730469 160.367188 166.207031 C 160.828125 165.625 160.785156 165.054688 160.316406 164.492188 C 159.234375 163.203125 158.859375 161.617188 158.429688 160.042969 C 158.324219 159.636719 158.082031 159.199219 157.769531 158.9375 C 157.230469 158.488281 157.140625 158 157.382812 157.421875 C 157.597656 156.921875 157.910156 156.464844 158.125 155.96875 C 158.335938 155.480469 158.464844 154.960938 158.65625 154.46875 C 158.820312 154.042969 159 153.625 159.210938 153.230469 C 159.859375 152.011719 160.535156 150.800781 161.183594 149.582031 C 161.257812 149.457031 161.316406 149.292969 161.289062 149.167969 C 161.0625 148.144531 161.664062 147.871094 162.503906 147.625 C 164.5 147.035156 165.714844 145.519531 166.679688 143.789062 C 166.988281 143.226562 167.285156 143.085938 167.945312 143.121094 C 168.835938 143.167969 169.796875 143.09375 170.621094 142.785156 C 171.882812 142.3125 172.066406 141.363281 171.324219 140.238281 C 171.230469 140.101562 171.167969 139.945312 171.03125 139.6875 C 172.234375 139.617188 173.332031 139.503906 174.429688 139.507812 C 175.808594 139.515625 177.175781 139.625 178.546875 139.6875 C 178.632812 139.691406 178.730469 139.691406 178.800781 139.734375 C 180.089844 140.570312 181.402344 140.421875 182.601562 139.640625 C 183.753906 138.898438 184.535156 137.804688 184.960938 136.472656 C 185.410156 135.046875 185.359375 134.667969 184.292969 133.890625 C 184.019531 133.691406 183.5625 133.605469 183.214844 133.652344 C 181.660156 133.855469 180.113281 134.324219 178.566406 134.316406 C 176.910156 134.3125 175.175781 134.09375 173.855469 132.855469 C 173.21875 132.261719 173.316406 131.570312 174.085938 131.152344 C 175.871094 130.175781 177.804688 129.664062 179.820312 129.589844 C 183.199219 129.460938 185.664062 127.476562 186.390625 124.179688 C 186.714844 122.703125 186.007812 121.25 184.820312 120.320312 C 183.335938 119.152344 181.523438 118.84375 179.84375 118.21875 C 179.40625 118.054688 178.777344 118.257812 178.289062 118.441406 C 177.796875 118.625 177.511719 118.710938 177.160156 118.179688 C 176.089844 116.566406 174.632812 115.355469 172.96875 114.390625 C 171.652344 113.621094 169.921875 113.777344 168.933594 115.074219 C 168.03125 116.25 167.410156 117.664062 166.824219 119.042969 C 166.636719 119.484375 167.042969 120.148438 167.0625 120.714844 C 167.082031 121.191406 167.015625 121.710938 166.839844 122.152344 C 166.515625 122.9375 166.078125 123.6875 165.6875 124.449219 C 165.238281 125.335938 164.492188 125.628906 163.628906 125.125 C 163.054688 124.785156 162.589844 124.257812 162.089844 123.800781 C 161.578125 123.320312 161.148438 122.703125 160.558594 122.359375 C 159.902344 121.976562 159.144531 122.066406 158.410156 122.417969 C 158.175781 122.53125 157.714844 122.402344 157.464844 122.230469 C 156.242188 121.375 155.347656 120.230469 154.9375 118.792969 C 154.847656 118.5 155.105469 118.046875 155.316406 117.742188 C 155.976562 116.765625 156.683594 115.816406 157.410156 114.890625 C 157.410156 114.886719 157.417969 114.882812 157.421875 114.875 C 157.609375 114.640625 157.917969 114.4375 158.203125 114.367188 C 158.203125 114.367188 158.207031 114.367188 158.210938 114.363281 C 159.128906 113.835938 160.738281 113.011719 162.554688 112.128906 C 162.570312 112.101562 162.585938 112.074219 162.601562 112.046875 C 162.753906 111.796875 163.003906 111.480469 163.25 111.4375 C 163.628906 111.367188 164.007812 111.304688 164.386719 111.25 C 168.179688 109.472656 172.160156 107.789062 172.476562 108.171875 C 173.125 108.957031 173.9375 109.085938 174.90625 109.078125 C 175.464844 109.074219 176.058594 109.398438 176.585938 109.679688 C 177.160156 109.976562 177.632812 110.457031 178.382812 110.132812 C 179.195312 109.785156 179.492188 109.21875 179.050781 108.457031 C 178.203125 107.007812 177.375 105.535156 176.359375 104.21875 C 175.875 103.59375 175.011719 103.148438 174.234375 102.878906 C 172.980469 102.445312 171.660156 102.140625 170.34375 101.941406 C 168.335938 101.628906 166.421875 102.121094 164.65625 103.070312 C 162.746094 104.09375 162.492188 104.15625 159.453125 103.324219 C 157.246094 102.714844 155.152344 103.070312 153.15625 104.097656 C 151.359375 105.023438 149.65625 106.175781 147.558594 106.347656 C 147.207031 106.378906 146.855469 106.429688 146.507812 106.46875 C 146.488281 106.410156 146.464844 106.34375 146.449219 106.285156 C 146.648438 106.152344 146.835938 106 147.058594 105.894531 C 151.570312 103.773438 156.121094 101.710938 160.960938 100.457031 C 164.417969 99.5625 167.9375 98.921875 171.433594 98.171875 C 172.085938 98.03125 172.441406 98.207031 172.515625 98.972656 C 172.546875 99.269531 173.019531 99.753906 173.296875 99.761719 C 174.597656 99.78125 175.90625 99.679688 177.210938 99.582031 C 177.957031 99.53125 178.652344 99.382812 179.457031 99.582031 C 180.535156 99.855469 181.726562 99.6875 182.863281 99.683594 C 183.148438 99.683594 183.429688 99.589844 183.71875 99.558594 C 185.269531 99.398438 186.128906 100.121094 186.367188 101.667969 C 186.410156 101.941406 186.777344 102.328125 187.042969 102.363281 C 187.765625 102.457031 188.515625 102.425781 189.25 102.390625 C 189.769531 102.367188 190.226562 102.296875 190.304688 103.03125 C 190.324219 103.222656 190.628906 103.511719 190.824219 103.535156 C 191.640625 103.625 192.464844 103.640625 193.28125 103.667969 C 193.585938 103.671875 193.894531 103.613281 194.476562 103.5625 C 193.445312 104.746094 194.710938 105.511719 194.613281 106.476562 C 195.34375 106.703125 196.066406 107.054688 196.8125 107.113281 C 197.5 107.175781 198.207031 106.894531 198.914062 106.808594 C 199.855469 106.691406 200.480469 107.089844 200.660156 108.019531 C 200.808594 108.785156 201.253906 109.09375 201.960938 109.117188 C 203.90625 109.183594 205.773438 108.824219 207.675781 108.359375 C 210.132812 107.761719 212.335938 106.25 214.992188 106.433594 C 216.832031 106.558594 218.730469 106.378906 220.503906 106.765625 C 221.8125 107.050781 222.972656 108.015625 224.183594 108.707031 C 225.210938 109.292969 226.195312 109.964844 227.246094 110.492188 C 227.847656 110.789062 227.941406 111.09375 227.65625 111.628906 C 227.4375 112.03125 227.238281 112.441406 227.027344 112.847656 C 226.339844 114.183594 226.765625 115.578125 228.003906 116.417969 C 228.792969 116.941406 229.476562 117.609375 230.21875 118.199219 C 230.390625 118.339844 230.625 118.398438 230.8125 118.535156 C 231.269531 118.859375 231.710938 119.207031 232.148438 119.5625 C 232.273438 119.664062 232.351562 119.835938 232.472656 119.953125 C 233.636719 121.058594 233.589844 121.035156 233 122.554688 C 232.695312 123.34375 232.4375 124.199219 232.402344 125.035156 C 232.347656 126.277344 231.777344 127.140625 230.875 127.878906 C 229.570312 128.945312 228.195312 129.945312 226.972656 131.09375 C 225.6875 132.304688 225.84375 133.320312 227.175781 134.425781 C 228.492188 135.511719 229.742188 136.683594 231.023438 137.8125 C 231.585938 138.316406 232.175781 138.789062 232.738281 139.289062 C 232.863281 139.402344 232.988281 139.511719 233.109375 139.628906 C 233.316406 139.816406 233.515625 140.011719 233.707031 140.214844 C 234.535156 141.085938 235.03125 142.105469 234.59375 143.40625 C 234.21875 144.515625 233.867188 145.621094 233.359375 146.667969 C 233.269531 146.738281 233.179688 146.808594 233.09375 146.882812 C 232.625 147.277344 232.160156 147.675781 231.6875 148.070312 C 231.28125 148.417969 230.867188 148.765625 230.378906 148.980469 C 229.378906 149.417969 228.230469 149.238281 227.144531 149.082031 C 225.886719 148.902344 224.617188 148.773438 223.34375 148.699219 C 223.113281 148.683594 222.867188 148.675781 222.664062 148.789062 C 222.222656 149.03125 222.242188 149.652344 222.085938 150.128906 C 221.660156 151.445312 219.929688 151.679688 218.550781 151.675781 C 217.980469 152.34375 218.597656 153.335938 219.199219 153.976562 C 219.878906 154.703125 220.570312 155.4375 221.425781 155.9375 C 222.351562 156.480469 223.421875 156.714844 224.488281 156.898438 C 224.667969 156.929688 224.839844 156.964844 225.015625 156.992188 C 226.402344 157.21875 227.78125 157.449219 229.167969 157.675781 C 229.167969 157.757812 229.167969 157.832031 229.160156 157.910156 C 229.128906 158.351562 229 158.785156 228.773438 159.164062 L 232.664062 162.429688 C 232.925781 162.648438 233.191406 162.867188 233.382812 163.152344 C 233.90625 163.925781 233.75 164.863281 233.59375 165.820312 C 233.558594 166.042969 233.519531 166.261719 233.492188 166.476562 C 233.453125 166.800781 233.421875 167.117188 233.441406 167.429688 C 233.476562 168.175781 233.757812 168.871094 234.066406 169.5625 C 234.183594 169.828125 234.304688 170.097656 234.417969 170.359375 C 235.117188 172 235.066406 173.808594 235.6875 175.421875 C 236.261719 176.914062 237.785156 178.570312 238.824219 179.769531 C 239.734375 180.808594 240.734375 181.753906 241.851562 182.621094 C 242.847656 183.390625 244.210938 183.171875 244.992188 184.175781 C 246.476562 184.054688 247.636719 184.929688 248.898438 185.460938 C 249.535156 185.722656 250.054688 185.964844 249.5625 186.816406 C 249.222656 187.402344 248.957031 188.0625 248.8125 188.726562 C 248.554688 189.921875 248.644531 191.078125 249.3125 192.199219 C 250.144531 193.597656 250.183594 195.203125 250.214844 196.78125 C 250.242188 198.324219 250.214844 199.875 250.226562 201.417969 C 250.226562 201.699219 250.191406 202.058594 250.339844 202.25 C 251.089844 203.203125 250.792969 204.273438 250.746094 205.3125 C 250.632812 207.945312 250.625 210.558594 251.335938 213.132812 C 251.585938 214.039062 251.613281 214.957031 251.203125 215.898438 Z M 204.726562 190.722656 C 204.492188 190.578125 204.253906 190.441406 204.007812 190.304688 C 203.117188 190.003906 202.277344 189.566406 201.507812 188.972656 C 201.464844 188.941406 201.417969 188.90625 201.375 188.871094 C 198.738281 186.730469 197.703125 183.664062 193.976562 183.152344 C 191.949219 182.875 189.859375 183.132812 187.855469 182.710938 C 187.5 182.640625 187.136719 182.535156 186.847656 182.320312 C 186.414062 182.003906 186.191406 181.496094 185.933594 181.027344 C 185.265625 179.84375 184.25 178.859375 183.046875 178.226562 C 182.90625 178.148438 182.757812 178.082031 182.605469 178.015625 C 182.109375 177.796875 181.550781 177.640625 181.046875 177.820312 C 180.550781 177.992188 180.222656 178.457031 179.816406 178.789062 C 178.277344 180.03125 175.847656 179.289062 174.152344 180.308594 C 173.824219 180.503906 173.519531 180.769531 173.226562 181.039062 C 172.59375 181.601562 171.988281 182.183594 171.171875 182.199219 C 170.742188 182.207031 170.335938 182.050781 169.9375 181.882812 C 169.859375 181.84375 169.777344 181.8125 169.699219 181.777344 C 168.148438 181.121094 166.476562 180.726562 164.792969 180.625 C 164.542969 180.609375 164.289062 180.601562 164.0625 180.695312 C 163.640625 180.867188 163.429688 181.324219 163.179688 181.703125 C 162.152344 183.242188 160.222656 183.695312 158.472656 184.425781 C 158.46875 184.425781 158.46875 184.429688 158.464844 184.429688 C 157.84375 184.6875 157.253906 184.980469 156.726562 185.371094 C 156.328125 185.667969 155.957031 186.03125 155.484375 186.195312 C 154.976562 186.375 154.421875 186.304688 153.890625 186.234375 L 150.578125 185.792969 L 150.574219 185.792969 L 147.386719 185.363281 C 147.773438 185.597656 148.160156 185.835938 148.539062 186.085938 C 151.679688 188.132812 154.511719 190.644531 156.917969 193.519531 C 157.445312 194.144531 157.960938 194.8125 158.199219 195.59375 C 158.382812 196.199219 158.386719 196.84375 158.457031 197.472656 C 158.730469 200.070312 160.042969 202.421875 161.34375 204.6875 C 161.78125 205.453125 162.273438 206.261719 163.070312 206.636719 C 163.292969 206.738281 163.53125 206.808594 163.757812 206.882812 C 163.988281 206.957031 164.21875 207.046875 164.410156 207.191406 C 164.9375 207.582031 165.105469 208.28125 165.242188 208.929688 C 165.292969 209.183594 165.351562 209.4375 165.402344 209.695312 C 165.644531 210.855469 165.878906 212.015625 166.125 213.175781 C 182.828125 206.359375 196.503906 199.175781 207.019531 192.898438 C 206.441406 191.984375 205.65625 191.296875 204.726562 190.722656 Z M 165.636719 111.101562 C 165.914062 111.078125 166.191406 111.0625 166.472656 111.054688 C 167.390625 111.039062 167.839844 110.394531 168.386719 109.890625 C 168.574219 109.714844 167.339844 110.289062 165.636719 111.101562 Z M 160.570312 113.9375 C 161.386719 113.835938 161.816406 113.34375 162.171875 112.769531 C 161.121094 113.269531 160.109375 113.757812 159.289062 114.136719 C 159.710938 114.054688 160.140625 113.992188 160.570312 113.9375 Z M 159.289062 114.136719 C 159.710938 114.054688 160.140625 113.992188 160.570312 113.9375 C 161.386719 113.835938 161.816406 113.34375 162.171875 112.769531 C 161.121094 113.269531 160.109375 113.757812 159.289062 114.136719 Z M 165.636719 111.101562 C 165.914062 111.078125 166.191406 111.0625 166.472656 111.054688 C 167.390625 111.039062 167.839844 110.394531 168.386719 109.890625 C 168.574219 109.714844 167.339844 110.289062 165.636719 111.101562 Z M 204.726562 190.722656 C 204.492188 190.578125 204.253906 190.441406 204.007812 190.304688 C 203.117188 190.003906 202.277344 189.566406 201.507812 188.972656 C 201.464844 188.941406 201.417969 188.90625 201.375 188.871094 C 198.738281 186.730469 197.703125 183.664062 193.976562 183.152344 C 191.949219 182.875 189.859375 183.132812 187.855469 182.710938 C 187.5 182.640625 187.136719 182.535156 186.847656 182.320312 C 186.414062 182.003906 186.191406 181.496094 185.933594 181.027344 C 185.265625 179.84375 184.25 178.859375 183.046875 178.226562 C 182.90625 178.148438 182.757812 178.082031 182.605469 178.015625 C 182.109375 177.796875 181.550781 177.640625 181.046875 177.820312 C 180.550781 177.992188 180.222656 178.457031 179.816406 178.789062 C 178.277344 180.03125 175.847656 179.289062 174.152344 180.308594 C 173.824219 180.503906 173.519531 180.769531 173.226562 181.039062 C 172.59375 181.601562 171.988281 182.183594 171.171875 182.199219 C 170.742188 182.207031 170.335938 182.050781 169.9375 181.882812 C 169.859375 181.84375 169.777344 181.8125 169.699219 181.777344 C 168.148438 181.121094 166.476562 180.726562 164.792969 180.625 C 164.542969 180.609375 164.289062 180.601562 164.0625 180.695312 C 163.640625 180.867188 163.429688 181.324219 163.179688 181.703125 C 162.152344 183.242188 160.222656 183.695312 158.472656 184.425781 C 158.46875 184.425781 158.46875 184.429688 158.464844 184.429688 C 157.84375 184.6875 157.253906 184.980469 156.726562 185.371094 C 156.328125 185.667969 155.957031 186.03125 155.484375 186.195312 C 154.976562 186.375 154.421875 186.304688 153.890625 186.234375 L 150.578125 185.792969 L 150.574219 185.792969 L 147.386719 185.363281 C 147.773438 185.597656 148.160156 185.835938 148.539062 186.085938 C 151.679688 188.132812 154.511719 190.644531 156.917969 193.519531 C 157.445312 194.144531 157.960938 194.8125 158.199219 195.59375 C 158.382812 196.199219 158.386719 196.84375 158.457031 197.472656 C 158.730469 200.070312 160.042969 202.421875 161.34375 204.6875 C 161.78125 205.453125 162.273438 206.261719 163.070312 206.636719 C 163.292969 206.738281 163.53125 206.808594 163.757812 206.882812 C 163.988281 206.957031 164.21875 207.046875 164.410156 207.191406 C 164.9375 207.582031 165.105469 208.28125 165.242188 208.929688 C 165.292969 209.183594 165.351562 209.4375 165.402344 209.695312 C 165.644531 210.855469 165.878906 212.015625 166.125 213.175781 C 182.828125 206.359375 196.503906 199.175781 207.019531 192.898438 C 206.441406 191.984375 205.65625 191.296875 204.726562 190.722656 Z M 204.726562 190.722656 C 204.492188 190.578125 204.253906 190.441406 204.007812 190.304688 C 203.117188 190.003906 202.277344 189.566406 201.507812 188.972656 C 201.464844 188.941406 201.417969 188.90625 201.375 188.871094 C 198.738281 186.730469 197.703125 183.664062 193.976562 183.152344 C 191.949219 182.875 189.859375 183.132812 187.855469 182.710938 C 187.5 182.640625 187.136719 182.535156 186.847656 182.320312 C 186.414062 182.003906 186.191406 181.496094 185.933594 181.027344 C 185.265625 179.84375 184.25 178.859375 183.046875 178.226562 C 182.90625 178.148438 182.757812 178.082031 182.605469 178.015625 C 182.109375 177.796875 181.550781 177.640625 181.046875 177.820312 C 180.550781 177.992188 180.222656 178.457031 179.816406 178.789062 C 178.277344 180.03125 175.847656 179.289062 174.152344 180.308594 C 173.824219 180.503906 173.519531 180.769531 173.226562 181.039062 C 172.59375 181.601562 171.988281 182.183594 171.171875 182.199219 C 170.742188 182.207031 170.335938 182.050781 169.9375 181.882812 C 169.859375 181.84375 169.777344 181.8125 169.699219 181.777344 C 168.148438 181.121094 166.476562 180.726562 164.792969 180.625 C 164.542969 180.609375 164.289062 180.601562 164.0625 180.695312 C 163.640625 180.867188 163.429688 181.324219 163.179688 181.703125 C 162.152344 183.242188 160.222656 183.695312 158.472656 184.425781 C 158.46875 184.425781 158.46875 184.429688 158.464844 184.429688 C 157.84375 184.6875 157.253906 184.980469 156.726562 185.371094 C 156.328125 185.667969 155.957031 186.03125 155.484375 186.195312 C 154.976562 186.375 154.421875 186.304688 153.890625 186.234375 L 150.578125 185.792969 L 150.574219 185.792969 L 147.386719 185.363281 C 147.773438 185.597656 148.160156 185.835938 148.539062 186.085938 C 151.679688 188.132812 154.511719 190.644531 156.917969 193.519531 C 157.445312 194.144531 157.960938 194.8125 158.199219 195.59375 C 158.382812 196.199219 158.386719 196.84375 158.457031 197.472656 C 158.730469 200.070312 160.042969 202.421875 161.34375 204.6875 C 161.78125 205.453125 162.273438 206.261719 163.070312 206.636719 C 163.292969 206.738281 163.53125 206.808594 163.757812 206.882812 C 163.988281 206.957031 164.21875 207.046875 164.410156 207.191406 C 164.9375 207.582031 165.105469 208.28125 165.242188 208.929688 C 165.292969 209.183594 165.351562 209.4375 165.402344 209.695312 C 165.644531 210.855469 165.878906 212.015625 166.125 213.175781 C 182.828125 206.359375 196.503906 199.175781 207.019531 192.898438 C 206.441406 191.984375 205.65625 191.296875 204.726562 190.722656 Z M 165.636719 111.101562 C 165.914062 111.078125 166.191406 111.0625 166.472656 111.054688 C 167.390625 111.039062 167.839844 110.394531 168.386719 109.890625 C 168.574219 109.714844 167.339844 110.289062 165.636719 111.101562 Z M 159.289062 114.136719 C 159.710938 114.054688 160.140625 113.992188 160.570312 113.9375 C 161.386719 113.835938 161.816406 113.34375 162.171875 112.769531 C 161.121094 113.269531 160.109375 113.757812 159.289062 114.136719 Z M 159.289062 114.136719 C 159.710938 114.054688 160.140625 113.992188 160.570312 113.9375 C 161.386719 113.835938 161.816406 113.34375 162.171875 112.769531 C 161.121094 113.269531 160.109375 113.757812 159.289062 114.136719 Z M 165.636719 111.101562 C 165.914062 111.078125 166.191406 111.0625 166.472656 111.054688 C 167.390625 111.039062 167.839844 110.394531 168.386719 109.890625 C 168.574219 109.714844 167.339844 110.289062 165.636719 111.101562 Z M 204.726562 190.722656 C 204.492188 190.578125 204.253906 190.441406 204.007812 190.304688 C 203.117188 190.003906 202.277344 189.566406 201.507812 188.972656 C 201.464844 188.941406 201.417969 188.90625 201.375 188.871094 C 198.738281 186.730469 197.703125 183.664062 193.976562 183.152344 C 191.949219 182.875 189.859375 183.132812 187.855469 182.710938 C 187.5 182.640625 187.136719 182.535156 186.847656 182.320312 C 186.414062 182.003906 186.191406 181.496094 185.933594 181.027344 C 185.265625 179.84375 184.25 178.859375 183.046875 178.226562 C 182.90625 178.148438 182.757812 178.082031 182.605469 178.015625 C 182.109375 177.796875 181.550781 177.640625 181.046875 177.820312 C 180.550781 177.992188 180.222656 178.457031 179.816406 178.789062 C 178.277344 180.03125 175.847656 179.289062 174.152344 180.308594 C 173.824219 180.503906 173.519531 180.769531 173.226562 181.039062 C 172.59375 181.601562 171.988281 182.183594 171.171875 182.199219 C 170.742188 182.207031 170.335938 182.050781 169.9375 181.882812 C 169.859375 181.84375 169.777344 181.8125 169.699219 181.777344 C 168.148438 181.121094 166.476562 180.726562 164.792969 180.625 C 164.542969 180.609375 164.289062 180.601562 164.0625 180.695312 C 163.640625 180.867188 163.429688 181.324219 163.179688 181.703125 C 162.152344 183.242188 160.222656 183.695312 158.472656 184.425781 C 158.46875 184.425781 158.46875 184.429688 158.464844 184.429688 C 157.84375 184.6875 157.253906 184.980469 156.726562 185.371094 C 156.328125 185.667969 155.957031 186.03125 155.484375 186.195312 C 154.976562 186.375 154.421875 186.304688 153.890625 186.234375 L 150.578125 185.792969 L 150.574219 185.792969 L 147.386719 185.363281 C 147.773438 185.597656 148.160156 185.835938 148.539062 186.085938 C 151.679688 188.132812 154.511719 190.644531 156.917969 193.519531 C 157.445312 194.144531 157.960938 194.8125 158.199219 195.59375 C 158.382812 196.199219 158.386719 196.84375 158.457031 197.472656 C 158.730469 200.070312 160.042969 202.421875 161.34375 204.6875 C 161.78125 205.453125 162.273438 206.261719 163.070312 206.636719 C 163.292969 206.738281 163.53125 206.808594 163.757812 206.882812 C 163.988281 206.957031 164.21875 207.046875 164.410156 207.191406 C 164.9375 207.582031 165.105469 208.28125 165.242188 208.929688 C 165.292969 209.183594 165.351562 209.4375 165.402344 209.695312 C 165.644531 210.855469 165.878906 212.015625 166.125 213.175781 C 182.828125 206.359375 196.503906 199.175781 207.019531 192.898438 C 206.441406 191.984375 205.65625 191.296875 204.726562 190.722656 Z M 174.226562 220.367188 C 173.988281 221.484375 173.109375 226.679688 173.191406 227.808594 C 191.558594 217.457031 205.144531 205.921875 211.714844 199.859375 C 211.714844 198.402344 210.472656 196.804688 210.472656 196.804688 C 210.472656 196.804688 186.539062 213.804688 174.226562 220.367188 Z M 204.726562 190.722656 C 204.492188 190.578125 204.253906 190.441406 204.007812 190.304688 C 203.117188 190.003906 202.277344 189.566406 201.507812 188.972656 C 201.464844 188.941406 201.417969 188.90625 201.375 188.871094 C 198.738281 186.730469 197.703125 183.664062 193.976562 183.152344 C 191.949219 182.875 189.859375 183.132812 187.855469 182.710938 C 187.5 182.640625 187.136719 182.535156 186.847656 182.320312 C 186.414062 182.003906 186.191406 181.496094 185.933594 181.027344 C 185.265625 179.84375 184.25 178.859375 183.046875 178.226562 C 182.90625 178.148438 182.757812 178.082031 182.605469 178.015625 C 182.109375 177.796875 181.550781 177.640625 181.046875 177.820312 C 180.550781 177.992188 180.222656 178.457031 179.816406 178.789062 C 178.277344 180.03125 175.847656 179.289062 174.152344 180.308594 C 173.824219 180.503906 173.519531 180.769531 173.226562 181.039062 C 172.59375 181.601562 171.988281 182.183594 171.171875 182.199219 C 170.742188 182.207031 170.335938 182.050781 169.9375 181.882812 C 169.859375 181.84375 169.777344 181.8125 169.699219 181.777344 C 168.148438 181.121094 166.476562 180.726562 164.792969 180.625 C 164.542969 180.609375 164.289062 180.601562 164.0625 180.695312 C 163.640625 180.867188 163.429688 181.324219 163.179688 181.703125 C 162.152344 183.242188 160.222656 183.695312 158.472656 184.425781 C 158.46875 184.425781 158.46875 184.429688 158.464844 184.429688 C 157.84375 184.6875 157.253906 184.980469 156.726562 185.371094 C 156.328125 185.667969 155.957031 186.03125 155.484375 186.195312 C 154.976562 186.375 154.421875 186.304688 153.890625 186.234375 L 150.578125 185.792969 L 150.574219 185.792969 L 147.386719 185.363281 C 147.773438 185.597656 148.160156 185.835938 148.539062 186.085938 C 151.679688 188.132812 154.511719 190.644531 156.917969 193.519531 C 157.445312 194.144531 157.960938 194.8125 158.199219 195.59375 C 158.382812 196.199219 158.386719 196.84375 158.457031 197.472656 C 158.730469 200.070312 160.042969 202.421875 161.34375 204.6875 C 161.78125 205.453125 162.273438 206.261719 163.070312 206.636719 C 163.292969 206.738281 163.53125 206.808594 163.757812 206.882812 C 163.988281 206.957031 164.21875 207.046875 164.410156 207.191406 C 164.9375 207.582031 165.105469 208.28125 165.242188 208.929688 C 165.292969 209.183594 165.351562 209.4375 165.402344 209.695312 C 165.644531 210.855469 165.878906 212.015625 166.125 213.175781 C 182.828125 206.359375 196.503906 199.175781 207.019531 192.898438 C 206.441406 191.984375 205.65625 191.296875 204.726562 190.722656 Z M 165.636719 111.101562 C 165.914062 111.078125 166.191406 111.0625 166.472656 111.054688 C 167.390625 111.039062 167.839844 110.394531 168.386719 109.890625 C 168.574219 109.714844 167.339844 110.289062 165.636719 111.101562 Z M 159.289062 114.136719 C 159.710938 114.054688 160.140625 113.992188 160.570312 113.9375 C 161.386719 113.835938 161.816406 113.34375 162.171875 112.769531 C 161.121094 113.269531 160.109375 113.757812 159.289062 114.136719 Z M 159.289062 114.136719 C 159.710938 114.054688 160.140625 113.992188 160.570312 113.9375 C 161.386719 113.835938 161.816406 113.34375 162.171875 112.769531 C 161.121094 113.269531 160.109375 113.757812 159.289062 114.136719 Z M 165.636719 111.101562 C 165.914062 111.078125 166.191406 111.0625 166.472656 111.054688 C 167.390625 111.039062 167.839844 110.394531 168.386719 109.890625 C 168.574219 109.714844 167.339844 110.289062 165.636719 111.101562 Z M 204.726562 190.722656 C 204.492188 190.578125 204.253906 190.441406 204.007812 190.304688 C 203.117188 190.003906 202.277344 189.566406 201.507812 188.972656 C 201.464844 188.941406 201.417969 188.90625 201.375 188.871094 C 198.738281 186.730469 197.703125 183.664062 193.976562 183.152344 C 191.949219 182.875 189.859375 183.132812 187.855469 182.710938 C 187.5 182.640625 187.136719 182.535156 186.847656 182.320312 C 186.414062 182.003906 186.191406 181.496094 185.933594 181.027344 C 185.265625 179.84375 184.25 178.859375 183.046875 178.226562 C 182.90625 178.148438 182.757812 178.082031 182.605469 178.015625 C 182.109375 177.796875 181.550781 177.640625 181.046875 177.820312 C 180.550781 177.992188 180.222656 178.457031 179.816406 178.789062 C 178.277344 180.03125 175.847656 179.289062 174.152344 180.308594 C 173.824219 180.503906 173.519531 180.769531 173.226562 181.039062 C 172.59375 181.601562 171.988281 182.183594 171.171875 182.199219 C 170.742188 182.207031 170.335938 182.050781 169.9375 181.882812 C 169.859375 181.84375 169.777344 181.8125 169.699219 181.777344 C 168.148438 181.121094 166.476562 180.726562 164.792969 180.625 C 164.542969 180.609375 164.289062 180.601562 164.0625 180.695312 C 163.640625 180.867188 163.429688 181.324219 163.179688 181.703125 C 162.152344 183.242188 160.222656 183.695312 158.472656 184.425781 C 158.46875 184.425781 158.46875 184.429688 158.464844 184.429688 C 157.84375 184.6875 157.253906 184.980469 156.726562 185.371094 C 156.328125 185.667969 155.957031 186.03125 155.484375 186.195312 C 154.976562 186.375 154.421875 186.304688 153.890625 186.234375 L 150.578125 185.792969 L 150.574219 185.792969 L 147.386719 185.363281 C 147.773438 185.597656 148.160156 185.835938 148.539062 186.085938 C 151.679688 188.132812 154.511719 190.644531 156.917969 193.519531 C 157.445312 194.144531 157.960938 194.8125 158.199219 195.59375 C 158.382812 196.199219 158.386719 196.84375 158.457031 197.472656 C 158.730469 200.070312 160.042969 202.421875 161.34375 204.6875 C 161.78125 205.453125 162.273438 206.261719 163.070312 206.636719 C 163.292969 206.738281 163.53125 206.808594 163.757812 206.882812 C 163.988281 206.957031 164.21875 207.046875 164.410156 207.191406 C 164.9375 207.582031 165.105469 208.28125 165.242188 208.929688 C 165.292969 209.183594 165.351562 209.4375 165.402344 209.695312 C 165.644531 210.855469 165.878906 212.015625 166.125 213.175781 C 182.828125 206.359375 196.503906 199.175781 207.019531 192.898438 C 206.441406 191.984375 205.65625 191.296875 204.726562 190.722656 Z M 165.636719 111.101562 C 165.914062 111.078125 166.191406 111.0625 166.472656 111.054688 C 167.390625 111.039062 167.839844 110.394531 168.386719 109.890625 C 168.574219 109.714844 167.339844 110.289062 165.636719 111.101562 Z M 159.289062 114.136719 C 159.710938 114.054688 160.140625 113.992188 160.570312 113.9375 C 161.386719 113.835938 161.816406 113.34375 162.171875 112.769531 C 161.121094 113.269531 160.109375 113.757812 159.289062 114.136719 Z M 159.289062 114.136719 C 159.710938 114.054688 160.140625 113.992188 160.570312 113.9375 C 161.386719 113.835938 161.816406 113.34375 162.171875 112.769531 C 161.121094 113.269531 160.109375 113.757812 159.289062 114.136719 Z M 165.636719 111.101562 C 165.914062 111.078125 166.191406 111.0625 166.472656 111.054688 C 167.390625 111.039062 167.839844 110.394531 168.386719 109.890625 C 168.574219 109.714844 167.339844 110.289062 165.636719 111.101562 Z M 165.636719 111.101562 C 165.914062 111.078125 166.191406 111.0625 166.472656 111.054688 C 167.390625 111.039062 167.839844 110.394531 168.386719 109.890625 C 168.574219 109.714844 167.339844 110.289062 165.636719 111.101562 Z M 159.289062 114.136719 C 159.710938 114.054688 160.140625 113.992188 160.570312 113.9375 C 161.386719 113.835938 161.816406 113.34375 162.171875 112.769531 C 161.121094 113.269531 160.109375 113.757812 159.289062 114.136719 Z M 159.289062 114.136719 " fill-opacity="1" fill-rule="nonzero"/><path fill="#1c61ad" d="M 259.222656 142.402344 C 236.371094 164.394531 201.785156 199.527344 165.402344 209.691406 C 143.886719 216.6875 127.589844 220.808594 108.625 216.589844 C 80.335938 208.351562 82.308594 171.960938 102.453125 153.425781 L 101.289062 160.636719 C 101.210938 160.960938 99.699219 166.347656 103.304688 173.816406 C 109.210938 186.042969 195.382812 185.109375 258.101562 138.304688 C 255.484375 140.257812 257.972656 139.359375 259.21875 142.398438 Z M 259.222656 142.402344 " fill-opacity="1" fill-rule="nonzero"/><path fill="#ffffff" d="M 101.285156 160.972656 C 97.996094 166.382812 96.921875 171.40625 98.507812 175.679688 C 104.707031 192.367188 148.613281 189.914062 197.660156 173.269531 C 222.902344 164.703125 245.101562 150.011719 258.34375 140.066406 C 266.3125 134.082031 271.035156 129.820312 271.222656 129.648438 C 271.226562 129.640625 271.230469 129.640625 271.230469 129.640625 L 271.222656 129.648438 C 271.019531 129.886719 266.65625 134.929688 259.21875 142.402344 C 256.15625 145.476562 252.574219 148.964844 248.550781 152.699219 C 231.867188 168.175781 207.550781 187.863281 181 199.953125 C 146.808594 215.527344 104.972656 223.308594 94.523438 202.292969 C 88.324219 189.828125 89.277344 174.773438 101.449219 159.441406 Z M 101.285156 160.972656 " fill-opacity="1" fill-rule="nonzero"/><g clip-path="url(#ecf09a6e67)"><path fill="#1c61ad" d="M 249.445312 146.242188 C 249.445312 146.242188 282.019531 124.71875 296.367188 105.164062 C 297.105469 104.15625 296.433594 102.703125 295.199219 102.539062 C 285.488281 101.25 276.882812 109.199219 271.511719 114.429688 C 265.675781 120.105469 249.324219 136.554688 249.324219 136.554688 L 236.847656 135.378906 L 233.5625 138.773438 L 235.824219 139.183594 L 249.449219 146.246094 Z M 249.445312 146.242188 " fill-opacity="1" fill-rule="nonzero"/></g><path fill="#1c61ad" d="M 270.875 115.289062 C 270.613281 116.078125 251.410156 105.886719 234.953125 100.886719 C 233.722656 100.511719 232.988281 102.269531 234.058594 102.976562 C 242.148438 108.324219 253.269531 114.75 258.644531 124.867188 L 265.953125 120.148438 L 270.875 115.285156 Z M 270.875 115.289062 " fill-opacity="1" fill-rule="nonzero"/><path fill="#1c61ad" d="M 255.734375 102.382812 C 255.839844 102.5 255.921875 102.640625 255.96875 102.804688 C 256.015625 102.972656 256.035156 103.164062 256.023438 103.375 C 256.007812 103.589844 255.964844 103.820312 255.890625 104.074219 C 255.816406 104.324219 255.710938 104.589844 255.578125 104.867188 C 255.445312 105.148438 255.289062 105.433594 255.101562 105.730469 C 254.914062 106.027344 254.707031 106.328125 254.472656 106.628906 C 254.242188 106.933594 253.992188 107.234375 253.722656 107.53125 C 253.453125 107.828125 253.167969 108.117188 252.871094 108.394531 C 252.578125 108.675781 252.273438 108.941406 251.960938 109.195312 C 251.648438 109.445312 251.335938 109.679688 251.019531 109.894531 C 250.703125 110.109375 250.394531 110.300781 250.085938 110.46875 C 249.78125 110.640625 249.484375 110.78125 249.195312 110.898438 C 248.910156 111.015625 248.640625 111.105469 248.386719 111.164062 C 248.128906 111.226562 247.894531 111.257812 247.683594 111.257812 C 247.46875 111.257812 247.28125 111.230469 247.113281 111.171875 C 246.949219 111.113281 246.816406 111.027344 246.707031 110.914062 C 246.597656 110.800781 246.519531 110.660156 246.46875 110.492188 C 246.421875 110.324219 246.402344 110.132812 246.417969 109.921875 C 246.429688 109.707031 246.472656 109.476562 246.546875 109.222656 C 246.621094 108.972656 246.726562 108.707031 246.859375 108.429688 C 246.992188 108.148438 247.152344 107.863281 247.335938 107.566406 C 247.523438 107.269531 247.734375 106.96875 247.964844 106.667969 C 248.199219 106.363281 248.449219 106.066406 248.71875 105.765625 C 248.988281 105.46875 249.269531 105.183594 249.566406 104.902344 C 249.863281 104.621094 250.167969 104.355469 250.480469 104.101562 C 250.789062 103.851562 251.105469 103.617188 251.417969 103.402344 C 251.734375 103.1875 252.046875 102.996094 252.351562 102.828125 C 252.660156 102.65625 252.957031 102.515625 253.242188 102.398438 C 253.527344 102.28125 253.800781 102.191406 254.054688 102.132812 C 254.308594 102.070312 254.542969 102.039062 254.757812 102.039062 C 254.96875 102.039062 255.160156 102.066406 255.324219 102.125 C 255.488281 102.183594 255.625 102.269531 255.734375 102.382812 Z M 255.734375 102.382812 " fill-opacity="1" fill-rule="nonzero"/><path fill="#1c61ad" d="M 266.371094 107.546875 C 266.5 107.683594 266.597656 107.851562 266.65625 108.054688 C 266.714844 108.257812 266.734375 108.484375 266.71875 108.742188 C 266.703125 109 266.648438 109.277344 266.558594 109.582031 C 266.46875 109.882812 266.34375 110.203125 266.183594 110.539062 C 266.023438 110.875 265.832031 111.222656 265.609375 111.578125 C 265.382812 111.9375 265.132812 112.296875 264.851562 112.660156 C 264.574219 113.027344 264.269531 113.386719 263.945312 113.746094 C 263.621094 114.101562 263.28125 114.449219 262.921875 114.789062 C 262.566406 115.125 262.199219 115.445312 261.824219 115.75 C 261.449219 116.054688 261.070312 116.335938 260.691406 116.59375 C 260.308594 116.851562 259.933594 117.085938 259.566406 117.289062 C 259.195312 117.492188 258.839844 117.664062 258.496094 117.804688 C 258.148438 117.945312 257.824219 118.054688 257.515625 118.125 C 257.210938 118.199219 256.925781 118.234375 256.667969 118.238281 C 256.414062 118.238281 256.183594 118.203125 255.988281 118.136719 C 255.789062 118.066406 255.625 117.960938 255.496094 117.824219 C 255.363281 117.6875 255.269531 117.515625 255.210938 117.316406 C 255.152344 117.113281 255.128906 116.882812 255.148438 116.628906 C 255.164062 116.371094 255.214844 116.089844 255.304688 115.789062 C 255.394531 115.488281 255.519531 115.167969 255.679688 114.832031 C 255.839844 114.496094 256.03125 114.148438 256.257812 113.792969 C 256.480469 113.433594 256.734375 113.074219 257.011719 112.707031 C 257.292969 112.34375 257.59375 111.984375 257.917969 111.625 C 258.246094 111.265625 258.585938 110.917969 258.941406 110.582031 C 259.300781 110.246094 259.664062 109.921875 260.042969 109.621094 C 260.417969 109.316406 260.796875 109.035156 261.175781 108.773438 C 261.554688 108.515625 261.929688 108.285156 262.300781 108.082031 C 262.667969 107.878906 263.027344 107.703125 263.371094 107.5625 C 263.714844 107.421875 264.042969 107.316406 264.347656 107.242188 C 264.65625 107.171875 264.9375 107.132812 265.195312 107.132812 C 265.453125 107.128906 265.679688 107.164062 265.878906 107.234375 C 266.074219 107.304688 266.238281 107.40625 266.371094 107.546875 Z M 266.371094 107.546875 " fill-opacity="1" fill-rule="nonzero"/><path fill="#1c61ad" d="M 278.867188 126.351562 C 278.867188 126.351562 279.492188 147.65625 275.429688 161.425781 C 275.167969 162.296875 273.90625 162.214844 273.777344 161.3125 C 272.628906 153.425781 272.949219 143.304688 267.789062 135.550781 L 278.867188 126.355469 Z M 278.867188 126.351562 " fill-opacity="1" fill-rule="nonzero"/><path fill="#1c61ad" d="M 283.75 142.371094 C 283.800781 142.492188 283.824219 142.628906 283.8125 142.773438 C 283.800781 142.921875 283.761719 143.074219 283.6875 143.238281 C 283.613281 143.40625 283.511719 143.574219 283.378906 143.75 C 283.246094 143.929688 283.089844 144.109375 282.902344 144.289062 C 282.714844 144.472656 282.503906 144.652344 282.269531 144.832031 C 282.035156 145.011719 281.785156 145.1875 281.511719 145.359375 C 281.238281 145.53125 280.953125 145.695312 280.652344 145.847656 C 280.355469 146.003906 280.046875 146.152344 279.730469 146.285156 C 279.414062 146.421875 279.09375 146.542969 278.773438 146.648438 C 278.453125 146.757812 278.136719 146.851562 277.828125 146.929688 C 277.515625 147.007812 277.210938 147.066406 276.921875 147.109375 C 276.628906 147.15625 276.351562 147.179688 276.09375 147.191406 C 275.832031 147.199219 275.589844 147.191406 275.371094 147.164062 C 275.152344 147.136719 274.960938 147.09375 274.789062 147.03125 C 274.621094 146.96875 274.480469 146.890625 274.367188 146.796875 C 274.253906 146.703125 274.171875 146.597656 274.121094 146.472656 C 274.066406 146.351562 274.046875 146.21875 274.058594 146.070312 C 274.066406 145.925781 274.109375 145.769531 274.183594 145.605469 C 274.253906 145.441406 274.355469 145.269531 274.488281 145.09375 C 274.621094 144.917969 274.78125 144.738281 274.96875 144.554688 C 275.15625 144.375 275.363281 144.191406 275.597656 144.011719 C 275.832031 143.832031 276.085938 143.65625 276.359375 143.484375 C 276.628906 143.316406 276.914062 143.152344 277.214844 142.996094 C 277.515625 142.839844 277.824219 142.695312 278.140625 142.558594 C 278.457031 142.425781 278.773438 142.304688 279.09375 142.195312 C 279.414062 142.085938 279.730469 141.992188 280.042969 141.917969 C 280.355469 141.839844 280.65625 141.777344 280.949219 141.734375 C 281.242188 141.691406 281.515625 141.664062 281.777344 141.65625 C 282.039062 141.644531 282.277344 141.65625 282.496094 141.679688 C 282.714844 141.707031 282.910156 141.753906 283.078125 141.8125 C 283.25 141.875 283.390625 141.953125 283.503906 142.046875 C 283.613281 142.140625 283.699219 142.25 283.75 142.371094 Z M 283.75 142.371094 " fill-opacity="1" fill-rule="nonzero"/><path fill="#1c61ad" d="M 283.332031 132.425781 C 283.398438 132.574219 283.421875 132.738281 283.410156 132.914062 C 283.398438 133.089844 283.347656 133.277344 283.257812 133.472656 C 283.171875 133.671875 283.046875 133.878906 282.886719 134.089844 C 282.730469 134.304688 282.539062 134.519531 282.3125 134.738281 C 282.085938 134.957031 281.835938 135.175781 281.554688 135.390625 C 281.269531 135.609375 280.964844 135.820312 280.640625 136.027344 C 280.3125 136.230469 279.964844 136.429688 279.605469 136.617188 C 279.246094 136.804688 278.875 136.980469 278.492188 137.140625 C 278.113281 137.304688 277.730469 137.449219 277.34375 137.582031 C 276.957031 137.710938 276.578125 137.824219 276.199219 137.917969 C 275.824219 138.011719 275.460938 138.082031 275.109375 138.136719 C 274.757812 138.191406 274.425781 138.222656 274.113281 138.230469 C 273.796875 138.242188 273.507812 138.230469 273.246094 138.199219 C 272.980469 138.167969 272.746094 138.113281 272.542969 138.039062 C 272.339844 137.964844 272.171875 137.871094 272.035156 137.757812 C 271.898438 137.644531 271.800781 137.515625 271.734375 137.367188 C 271.671875 137.222656 271.648438 137.058594 271.660156 136.882812 C 271.671875 136.707031 271.722656 136.519531 271.8125 136.320312 C 271.898438 136.121094 272.023438 135.917969 272.179688 135.703125 C 272.339844 135.492188 272.53125 135.277344 272.757812 135.058594 C 272.980469 134.839844 273.234375 134.621094 273.515625 134.402344 C 273.800781 134.1875 274.105469 133.976562 274.429688 133.769531 C 274.757812 133.5625 275.101562 133.367188 275.464844 133.179688 C 275.824219 132.992188 276.195312 132.816406 276.578125 132.652344 C 276.957031 132.492188 277.339844 132.34375 277.726562 132.214844 C 278.113281 132.085938 278.492188 131.972656 278.871094 131.878906 C 279.246094 131.785156 279.609375 131.710938 279.960938 131.660156 C 280.3125 131.605469 280.644531 131.574219 280.957031 131.5625 C 281.273438 131.554688 281.5625 131.5625 281.824219 131.597656 C 282.089844 131.628906 282.320312 131.683594 282.527344 131.757812 C 282.730469 131.832031 282.898438 131.925781 283.035156 132.035156 C 283.171875 132.148438 283.269531 132.28125 283.332031 132.425781 Z M 283.332031 132.425781 " fill-opacity="1" fill-rule="nonzero"/><path fill="#63cbf7" d="M 281.496094 210.5 L 279.988281 209.980469 C 283.703125 199.234375 285.582031 187.96875 285.582031 176.492188 C 285.582031 168.617188 284.683594 160.765625 282.917969 153.167969 L 284.472656 152.804688 C 286.269531 160.523438 287.179688 168.492188 287.179688 176.492188 C 287.179688 188.144531 285.265625 199.585938 281.496094 210.5 Z M 281.496094 210.5 " fill-opacity="1" fill-rule="nonzero"/><g clip-path="url(#2749db2111)"><path fill="#63cbf7" d="M 149.335938 275.125 C 107.078125 260.757812 78.691406 221.121094 78.691406 176.492188 C 78.691406 165.195312 80.492188 154.09375 84.035156 143.480469 L 85.546875 143.984375 C 82.054688 154.433594 80.285156 165.371094 80.285156 176.492188 C 80.285156 220.4375 108.234375 259.46875 149.84375 273.621094 L 149.332031 275.128906 Z M 149.335938 275.125 " fill-opacity="1" fill-rule="nonzero"/></g><g clip-path="url(#bd909d1c3b)"><path fill="#63cbf7" d="M 249.789062 98.652344 C 237.117188 87.769531 221.847656 80.085938 205.636719 76.433594 L 205.984375 74.875 C 222.453125 78.59375 237.960938 86.394531 250.832031 97.441406 Z M 249.789062 98.652344 " fill-opacity="1" fill-rule="nonzero"/></g><path fill="#1c61ad" d="M 234.148438 177.996094 C 231.394531 180.378906 222.496094 187.921875 210.472656 196.804688 C 200.078125 204.492188 187.339844 213.175781 174.226562 220.367188 C 164.601562 225.652344 154.765625 230.136719 145.503906 232.835938 C 138.972656 234.738281 133.539062 235.78125 129.039062 236.171875 C 126.90625 236.355469 124.976562 236.394531 123.25 236.308594 C 107.71875 235.5625 107.746094 224.925781 111.105469 221.011719 C 111.117188 220.992188 111.128906 220.976562 111.144531 220.960938 C 111.308594 221.21875 112.472656 222.960938 112.609375 223.175781 C 113.394531 224.445312 115.648438 225.863281 119.792969 226.546875 C 127.125 227.75 140.371094 226.640625 161.90625 218.289062 C 164.5625 217.257812 167.152344 216.214844 169.667969 215.167969 C 185.617188 208.523438 198.710938 201.601562 208.882812 195.515625 C 223.019531 187.0625 231.503906 180.226562 234.148438 177.996094 Z M 234.148438 177.996094 " fill-opacity="1" fill-rule="nonzero"/><path fill="#1c61ad" d="M 162.152344 235.78125 C 140.566406 246.011719 133.28125 244.964844 130.835938 242.863281 C 130.433594 242.523438 128.859375 241.039062 128.753906 241.214844 C 126.238281 245.65625 129.015625 256.972656 154.519531 247.484375 C 182.472656 237.082031 217.566406 196.972656 217.566406 196.972656 C 217.566406 196.972656 195.988281 219.746094 162.152344 235.78125 Z M 162.152344 235.78125 " fill-opacity="1" fill-rule="nonzero"/></svg>